<svg width="32" height="32" viewBox="0 0 32 32" fill="none" xmlns="http://www.w3.org/2000/svg">
<rect width="32" height="32" fill="#1877F2"/>
<path d="M28.4844 25.8125C27.5365 26.1979 26.6823 26.4583 25.9219 26.5938C25.1615 26.7292 24.4896 26.7969 23.9062 26.7969C23.1771 26.7969 22.4479 26.6042 21.7188 26.2188C21 25.8333 20.3021 25.3438 19.625 24.75C18.9583 24.1458 18.3281 23.4792 17.7344 22.75C17.1406 22.0208 16.6042 21.3073 16.125 20.6094C15.6562 19.9115 15.2552 19.276 14.9219 18.7031C14.599 18.1302 14.3698 17.7031 14.2344 17.4219C15.5573 17.2031 16.7396 16.8073 17.7812 16.2344C18.2292 15.9844 18.6667 15.6875 19.0938 15.3438C19.5208 15 19.901 14.5938 20.2344 14.125C20.5677 13.6562 20.8333 13.1198 21.0312 12.5156C21.2396 11.9115 21.3438 11.224 21.3438 10.4531C21.3438 9.75521 21.2552 9.125 21.0781 8.5625C20.901 7.98958 20.6667 7.48438 20.375 7.04688C20.0833 6.59896 19.7448 6.21875 19.3594 5.90625C18.974 5.58333 18.5729 5.31771 18.1562 5.10938C17.7396 4.90104 17.3177 4.75 16.8906 4.65625C16.474 4.55208 16.0833 4.5 15.7188 4.5C15.1667 4.5 14.7083 4.55729 14.3438 4.67188C13.9896 4.78646 13.7083 4.94271 13.5 5.14062C13.2917 5.32812 13.1458 5.55208 13.0625 5.8125C12.9896 6.0625 12.9531 6.32812 12.9531 6.60938V23.25C12.9531 23.4583 12.9844 23.6875 13.0469 23.9375C13.1198 24.1875 13.25 24.4219 13.4375 24.6406C13.6354 24.8594 13.9167 25.0469 14.2812 25.2031C14.6458 25.349 15.125 25.4219 15.7188 25.4219V26H5.25V25.4219C5.80208 25.4219 6.25521 25.3698 6.60938 25.2656C6.96354 25.151 7.24479 25 7.45312 24.8125C7.66146 24.6146 7.80208 24.3906 7.875 24.1406C7.95833 23.8906 8 23.625 8 23.3438V6.21875C8 6.01042 7.95833 5.78646 7.875 5.54688C7.80208 5.30729 7.66146 5.08854 7.45312 4.89062C7.25521 4.68229 6.97917 4.51042 6.625 4.375C6.27083 4.23958 5.8125 4.17188 5.25 4.17188V3.59375H15.7188C17.1979 3.59375 18.5938 3.72396 19.9062 3.98438C21.2188 4.24479 22.3646 4.65625 23.3438 5.21875C24.3333 5.77083 25.1146 6.48438 25.6875 7.35938C26.2708 8.22396 26.5625 9.26562 26.5625 10.4844C26.5625 11.5156 26.349 12.4167 25.9219 13.1875C25.5052 13.9583 24.9479 14.6198 24.25 15.1719C23.5625 15.724 22.776 16.1823 21.8906 16.5469C21.0156 16.901 20.1198 17.1823 19.2031 17.3906C19.5573 18.0365 19.9479 18.6823 20.375 19.3281C20.8021 19.974 21.25 20.5938 21.7188 21.1875C22.1875 21.7812 22.6562 22.3333 23.125 22.8438C23.6042 23.3542 24.0677 23.8021 24.5156 24.1875C24.9635 24.5625 25.3802 24.8594 25.7656 25.0781C26.1615 25.2865 26.5104 25.3906 26.8125 25.3906C26.9583 25.3906 27.1562 25.375 27.4062 25.3438C27.6667 25.3125 27.9479 25.2344 28.25 25.1094L28.4844 25.8125Z" fill="white"/>
</svg>
